grf.mot
version=1
nRows=83
nColumns=19
inDegrees=yes
endheader
time	ground_force_vx	ground_force_vy	ground_force_vz	ground_force_px	ground_force_py	ground_force_pz	1_ground_force_vx	1_ground_force_vy	1_ground_force_vz	1_ground_force_px	1_ground_force_py	1_ground_force_pz	ground_torque_x	ground_torque_y	ground_torque_z	1_ground_torque_x	1_ground_torque_y	1_ground_torque_z	
2.47887	0	0	0	0	0	0	-12.1307	612.27	48.7473	-0.00183733	0	-0.134447	0	0	0	0	4.88358	0
2.48054	0	0	0	0	0	0	-11.4496	610.082	48.3133	-0.00350264	0	-0.134314	0	0	0	0	4.8544	0
2.4822	0	0	0	0	0	0	-10.7788	608.024	47.8822	-0.00518214	0	-0.134183	0	0	0	0	4.82537	0
2.48387	0	0	0	0	0	0	-10.1172	606.094	47.4538	-0.00687659	0	-0.134053	0	0	0	0	4.79642	0
2.48554	0	0	0	0	0	0	-9.46378	604.29	47.0283	-0.00858669	0	-0.133925	0	0	0	0	4.76749	0
2.4872	0	0	0	0	0	0	-8.81747	602.611	46.6057	-0.0103131	0	-0.1338	0	0	0	0	4.73853	0
2.48887	0	0	0	0	0	0	-8.17731	601.054	46.1859	-0.0120565	0	-0.133679	0	0	0	0	4.70948	0
2.49054	0	0	0	0	0	0	-7.54239	599.616	45.769	-0.0138173	0	-0.133561	0	0	0	0	4.68029	0
2.4922	0	0	0	0	0	0	-6.91187	598.296	45.3551	-0.015596	0	-0.133448	0	0	0	0	4.6509	0
2.49387	0	0	0	0	0	0	-6.28496	597.091	44.9442	-0.0173931	0	-0.13334	0	0	0	0	4.62126	0
2.49554	0	0	0	0	0	0	-5.66093	595.997	44.5363	-0.0192089	0	-0.133238	0	0	0	0	4.59133	0
2.4972	0	0	0	0	0	0	-5.03911	595.013	44.1316	-0.0210438	0	-0.133142	0	0	0	0	4.56106	0
2.49887	0	0	0	0	0	0	-4.41889	594.135	43.7301	-0.0228978	0	-0.133053	0	0	0	0	4.53041	0
2.50054	0	0	0	0	0	0	-3.79973	593.359	43.332	-0.0247712	0	-0.132971	0	0	0	0	4.49933	0
2.5022	0	0	0	0	0	0	-3.18114	592.684	42.9373	-0.026664	0	-0.132896	0	0	0	0	4.46779	0
2.50387	0	0	0	0	0	0	-2.56269	592.106	42.5463	-0.0285762	0	-0.132829	0	0	0	0	4.43576	0
2.50554	0	0	0	0	0	0	-1.94399	591.621	42.1591	-0.0305078	0	-0.13277	0	0	0	0	4.4032	0
2.5072	0	0	0	0	0	0	-1.32473	591.226	41.7759	-0.0324586	0	-0.13272	0	0	0	0	4.37007	0
2.50887	0	0	0	0	0	0	-0.704643	590.919	41.3969	-0.0344283	0	-0.132678	0	0	0	0	4.33637	0
2.51054	0	0	0	0	0	0	-0.0835057	590.696	41.0223	-0.0364166	0	-0.132645	0	0	0	0	4.30205	0
2.5122	0	0	0	0	0	0	0.538852	590.554	40.6523	-0.0384232	0	-0.132622	0	0	0	0	4.26711	0
2.51387	0	0	0	0	0	0	1.16256	590.49	40.2872	-0.0404476	0	-0.132607	0	0	0	0	4.23151	0
2.51554	0	0	0	0	0	0	1.78769	590.5	39.9274	-0.0424892	0	-0.132603	0	0	0	0	4.19525	0
2.5172	0	0	0	0	0	0	2.4143	590.582	39.5731	-0.0445475	0	-0.132607	0	0	0	0	4.15832	0
2.51887	0	0	0	0	0	0	3.04239	590.733	39.2246	-0.0466216	0	-0.132621	0	0	0	0	4.1207	0
2.52054	0	0	0	0	0	0	3.67194	590.95	38.8823	-0.0487109	0	-0.132644	0	0	0	0	4.08239	0
2.5222	0	0	0	0	0	0	4.3029	591.231	38.5465	-0.0508145	0	-0.132677	0	0	0	0	4.04339	0
2.52387	0	0	0	0	0	0	4.9352	591.572	38.2177	-0.0529315	0	-0.132719	0	0	0	0	4.00369	0
2.52554	0	0	0	0	0	0	5.56874	591.972	37.8962	-0.055061	0	-0.13277	0	0	0	0	3.9633	0
2.5272	0	0	0	0	0	0	6.20339	592.428	37.5825	-0.0572018	0	-0.132831	0	0	0	0	3.92222	0
2.52887	0	0	0	0	0	0	6.83905	592.938	37.277	-0.0593528	0	-0.1329	0	0	0	0	3.88046	0
2.53054	0	0	0	0	0	0	7.47556	593.499	36.9801	-0.061513	0	-0.132977	0	0	0	0	3.83803	0
2.5322	0	0	0	0	0	0	8.1128	594.112	36.6924	-0.063681	0	-0.133063	0	0	0	0	3.79494	0
2.53387	0	0	0	0	0	0	8.75061	594.773	36.4143	-0.0658556	0	-0.133157	0	0	0	0	3.75121	0
2.53554	0	0	0	0	0	0	9.38886	595.481	36.1463	-0.0680354	0	-0.133259	0	0	0	0	3.70686	0
2.5372	0	0	0	0	0	0	10.0274	596.236	35.889	-0.0702191	0	-0.133368	0	0	0	0	3.66189	0
2.53887	0	0	0	0	0	0	10.6662	597.036	35.6428	-0.0724053	0	-0.133484	0	0	0	0	3.61634	0
2.54054	0	0	0	0	0	0	11.305	597.881	35.4084	-0.0745925	0	-0.133606	0	0	0	0	3.57024	0
2.5422	0	0	0	0	0	0	11.9438	598.77	35.1862	-0.0767793	0	-0.133734	0	0	0	0	3.52359	0
2.54387	0	0	0	0	0	0	12.5826	599.702	34.9768	-0.0789641	0	-0.133868	0	0	0	0	3.47644	0
2.54554	0	0	0	0	0	0	13.2213	600.678	34.7808	-0.0811453	0	-0.134008	0	0	0	0	3.42881	0
2.5472	0	0	0	0	0	0	13.8598	601.699	34.5987	-0.0833215	0	-0.134151	0	0	0	0	3.38073	0
2.54887	0	0	0	0	0	0	14.4983	602.763	34.4312	-0.0854911	0	-0.134299	0	0	0	0	3.33223	0
2.55054	0	0	0	0	0	0	15.1367	603.873	34.2787	-0.0876525	0	-0.13445	0	0	0	0	3.28335	0
2.5522	0	0	0	0	0	0	15.7752	605.028	34.1418	-0.0898042	0	-0.134604	0	0	0	0	3.23412	0
2.55387	0	0	0	0	0	0	16.414	606.23	34.0211	-0.0919447	0	-0.134761	0	0	0	0	3.18458	0
2.55554	0	0	0	0	0	0	17.0531	607.48	33.9172	-0.0940723	0	-0.134919	0	0	0	0	3.13476	0
2.5572	0	0	0	0	0	0	17.6929	608.78	33.8305	-0.0961856	0	-0.135078	0	0	0	0	3.08471	0
2.55887	0	0	0	0	0	0	18.3336	610.132	33.7617	-0.098283	0	-0.135238	0	0	0	0	3.03445	0
2.56054	0	0	0	0	0	0	18.9755	611.536	33.7112	-0.100363	0	-0.135398	0	0	0	0	2.98402	0
2.5622	0	0	0	0	0	0	19.6191	612.996	33.6796	-0.102425	0	-0.135557	0	0	0	0	2.93348	0
2.56387	0	0	0	0	0	0	20.2647	614.514	33.6674	-0.104466	0	-0.135715	0	0	0	0	2.88284	0
2.56554	0	0	0	0	0	0	20.9128	616.092	33.6749	-0.106486	0	-0.135871	0	0	0	0	2.83216	0
2.5672	0	0	0	0	0	0	21.564	617.732	33.7028	-0.108483	0	-0.136025	0	0	0	0	2.78148	0
2.56887	0	0	0	0	0	0	22.2189	619.438	33.7513	-0.110457	0	-0.136175	0	0	0	0	2.73082	0
2.57054	0	0	0	0	0	0	22.8781	621.212	33.8209	-0.112405	0	-0.136322	0	0	0	0	2.68024	0
2.5722	0	0	0	0	0	0	23.5423	623.058	33.912	-0.114328	0	-0.136465	0	0	0	0	2.62977	0
2.57387	0	0	0	0	0	0	24.2122	624.977	34.025	-0.116223	0	-0.136603	0	0	0	0	2.57944	0
2.57554	0	0	0	0	0	0	24.8887	626.975	34.16	-0.118091	0	-0.136735	0	0	0	0	2.5293	0
2.5772	0	0	0	0	0	0	25.5726	629.053	34.3174	-0.11993	0	-0.136862	0	0	0	0	2.47937	0
2.57887	0	0	0	0	0	0	26.2648	631.215	34.4974	-0.121739	0	-0.136982	0	0	0	0	2.42971	0
2.58054	0	0	0	0	0	0	26.9662	633.465	34.7002	-0.123519	0	-0.137095	0	0	0	0	2.38033	0
2.5822	0	0	0	0	0	0	27.6778	635.805	34.926	-0.125268	0	-0.137201	0	0	0	0	2.33128	0
2.58387	0	0	0	0	0	0	28.4007	638.239	35.1749	-0.126986	0	-0.1373	0	0	0	0	2.28259	0
2.58554	0	0	0	0	0	0	29.1359	640.77	35.4468	-0.128674	0	-0.13739	0	0	0	0	2.23428	0
2.5872	0	0	0	0	0	0	29.8844	643.402	35.7419	-0.13033	0	-0.137471	0	0	0	0	2.18639	0
2.58887	0	0	0	0	0	0	30.6475	646.138	36.06	-0.131954	0	-0.137544	0	0	0	0	2.13894	0
2.59054	0	0	0	0	0	0	31.4263	648.98	36.4012	-0.133548	0	-0.137607	0	0	0	0	2.09196	0
2.5922	0	0	0	0	0	0	32.2219	651.931	36.7652	-0.135111	0	-0.137661	0	0	0	0	2.04548	0
2.59387	0	0	0	0	0	0	33.0356	654.996	37.1517	-0.136644	0	-0.137705	0	0	0	0	1.99952	0
2.59554	0	0	0	0	0	0	33.8685	658.175	37.5607	-0.138146	0	-0.137739	0	0	0	0	1.9541	0
2.5972	0	0	0	0	0	0	34.7219	661.471	37.9917	-0.139619	0	-0.137762	0	0	0	0	1.90923	0
2.59887	0	0	0	0	0	0	35.5969	664.887	38.4443	-0.141064	0	-0.137776	0	0	0	0	1.86494	0
2.60054	0	0	0	0	0	0	36.4948	668.425	38.9182	-0.142481	0	-0.137779	0	0	0	0	1.82124	0
2.6022	0	0	0	0	0	0	37.4168	672.086	39.4128	-0.143872	0	-0.137771	0	0	0	0	1.77813	0
2.60387	0	0	0	0	0	0	38.364	675.873	39.9275	-0.145237	0	-0.137753	0	0	0	0	1.73564	0
2.60554	0	0	0	0	0	0	39.3378	679.785	40.4617	-0.146578	0	-0.137724	0	0	0	0	1.69377	0
2.6072	0	0	0	0	0	0	40.3391	683.824	41.0147	-0.147896	0	-0.137684	0	0	0	0	1.65253	0
2.60887	0	0	0	0	0	0	41.3691	687.991	41.5858	-0.149194	0	-0.137634	0	0	0	0	1.61191	0
2.61054	0	0	0	0	0	0	42.429	692.286	42.1741	-0.150472	0	-0.137574	0	0	0	0	1.57192	0
2.6122	0	0	0	0	0	0	43.5196	696.709	42.7788	-0.151733	0	-0.137504	0	0	0	0	1.53256	0
2.61387	0	0	0	0	0	0	44.6421	701.258	43.3988	-0.152978	0	-0.137423	0	0	0	0	1.49382	0
2.61554	0	0	0	0	0	0	45.7974	705.934	44.0332	-0.154209	0	-0.137333	0	0	0	0	1.4557	0
